<?xml version="1.0" standalone="no"?><!DOCTYPE svg PUBLIC "-//W3C//DTD SVG 1.1//EN" "http://www.w3.org/Graphics/SVG/1.1/DTD/svg11.dtd"><svg class="icon" width="200px" height="200.00px" viewBox="0 0 1024 1024" version="1.1" xmlns="http://www.w3.org/2000/svg"><path fill="#de8bb0" d="M946.56 504.96L560.064 118.848l-25.92-25.856a31.488 31.488 0 0 0-44.416 0L77.504 504.96a63.936 63.936 0 0 0-18.816 45.952c0.384 35.2 29.696 63.36 64.896 63.36h42.496v325.632h691.84V614.272h43.392a63.68 63.68 0 0 0 45.312-18.752c12.096-12.16 18.688-28.16 18.688-45.312a63.616 63.616 0 0 0-18.816-45.184z m-378.56 363.072h-112v-204.032h112v204.032z m217.92-325.76v325.76H632V640a40 40 0 0 0-40-40h-160a40 40 0 0 0-40 40v228.032H238.08v-325.76h-96l370.048-369.664 23.04 23.04 346.88 346.624H785.92z" /></svg>